{"title":"The Warriors Way 2010 720p XViD BRRiP DTRG - SAFCuk009","uid":6277990,"size":3026199358,"categoryP":"video","categoryS":"hd___movies","magnet":"?xt=urn:btih:4f8a7a532cfeb4b7b0a4a8ab2eb0bf45f8b0f03e&amp;dn=The+Warriors+Way+2010+720p+XViD+BRRiP+DTRG+-+SAFCuk009&amp;tr=udp%3A%2F%2Ftracker.openbittorrent.com%3A80&amp;tr=udp%3A%2F%2Fopen.demonii.com%3A1337&amp;tr=udp%3A%2F%2Ftracker.coppersurfer.tk%3A6969&amp;tr=udp%3A%2F%2Fexodus.desync.com%3A6969","seeders":1,"leechers":0,"uploader":"SAFCukO09","files":3,"time":1301331872,"description":"Format : AVI\nFormat/Info : Audio Video Interleave\nFormat profile : OpenDML\nFile size : 2.81 GiB\nDuration : 1h 40mn\nOverall bit rate : 4 012 Kbps\nWriting application : VirtualDubMod 1.5.10.3 | www.virtualdub-fr.org || (build 2550/release)\nWriting library : VirtualDubMod build 2550/release\n\nVideo\nID : 0\nFormat : MPEG-4 Visual\nFormat profile : Advanced Simple@L5\nFormat settings, BVOP : Yes\nFormat settings, QPel : No\nFormat settings, GMC : No warppoints\nFormat settings, Matrix : Custom\nCodec ID : XVID\nCodec ID/Hint : XviD\nDuration : 1h 40mn\nBit rate : 3 554 Kbps\nWidth : 1 280 pixels\nHeight : 536 pixels\nDisplay aspect ratio : 2.35:1\nFrame rate : 23.976 fps\nColor space : YUV\nChroma subsampling : 4:2:0\nBit depth : 8 bits\nScan type : Progressive\nBits/(Pixel*Frame) : 0.216\nStream size : 2.49 GiB (89%)\nWriting library : XviD 1.2.1 (UTC 2008-12-04)\n\nAudio\nID : 1\nFormat : AC-3\nFormat/Info : Audio Coding 3\nMode extension : CM (complete main)\nCodec ID : 2000\nDuration : 1h 40mn\nBit rate mode : Constant\nBit rate : 448 Kbps\nChannel(s) : 6 channels\nChannel positions : Front: L C R, Side: L R, LFE\nSampling rate : 48.0 KHz\nBit depth : 16 bits\nStream size : 321 MiB (11%)\nAlignment : Split accross interleaves\nInterleave, duration : 42 ms (1.00 video frame)\nInterleave, preload duration : 500 ms\n\n\n\n &lt;a href=&quot;\nhttp://www.imdb.com/title/tt1032751/&quot; rel=&quot;nofollow&quot; target=&quot;_NEW&quot;&gt;\nhttp://www.imdb.com/title/tt1032751/&lt;/a&gt;\n\n\n\n\n89524873606771859129.png\n\n\nUsers: 6.2/10 (1,748 votes) 43 reviews | Critics: 47 reviews Metascore: 45/100 (based on 11 reviews from Metacritic.com)\n\nA warrior-assassin is forced to hide in a small town in the American Badlands after refusing a mission.\nDirector:\nSngmoo Lee\nWriter:\nSngmoo Lee, and 1 more credit Ã‚Â»\nStars:\nDong-gun Jang, Kate Bosworth and Geoffrey Rush\n\n\nThe Warriors Way 2010 720p BluRay X264-AMIABLE ............. Thanks\n\nDont do many 720s but here goes\n\nAnd special thanks to DiLLoN from Flawl3ss on this one!\n\n\n\n\nGreetz to Imagine ,Flawl3ss,DiLLoN,BDK,NOiR,TOXiCiNK,THC,Ez,Rx,","torrent":{"xt":"urn:btih:4f8a7a532cfeb4b7b0a4a8ab2eb0bf45f8b0f03e","amp;dn":"The+Warriors+Way+2010+720p+XViD+BRRiP+DTRG+-+SAFCuk009","amp;tr":["udp%3A%2F%2Ftracker.openbittorrent.com%3A80","udp%3A%2F%2Fopen.demonii.com%3A1337","udp%3A%2F%2Ftracker.coppersurfer.tk%3A6969","udp%3A%2F%2Fexodus.desync.com%3A6969"],"infoHash":"4f8a7a532cfeb4b7b0a4a8ab2eb0bf45f8b0f03e","infoHashBuffer":{"type":"Buffer","data":[79,138,122,83,44,254,180,183,176,164,168,171,46,176,191,69,248,176,240,62]},"announce":[],"urlList":[]}}